<svg xmlns="http://www.w3.org/2000/svg" version="1.1" xmlns:xlink="http://www.w3.org/1999/xlink"
    xmlns:svgjs="http://svgjs.dev/svgjs" width="1000" height="214" viewBox="0 0 1000 214">
    <g transform="matrix(1,0,0,1,-0.6060603046518622,-0.49462896305533377)">
        <svg viewBox="0 0 396 85" data-background-color="#77d4fc"
            preserveAspectRatio="xMidYMid meet" height="214" width="1000"
            xmlns="http://www.w3.org/2000/svg" xmlns:xlink="http://www.w3.org/1999/xlink">
            <g id="tight-bounds" transform="matrix(1,0,0,1,0.24000011935788734,0.19646477504534232)">
                <svg viewBox="0 0 395.52 84.60707044990934" height="84.60707044990934"
                    width="395.52">
                    <g>
                        <svg viewBox="0 0 540.4224280150107 115.60365705849786"
                            height="84.60707044990934" width="395.52">
                            <g>
                                <rect width="4.791769052111814" height="115.60365705849786"
                                    x="127.56676092072138" y="0" fill="#0369a1" opacity="1"
                                    stroke-width="0" stroke="transparent" fill-opacity="1"
                                    class="rect-o-0" data-fill-palette-color="primary" rx="1%"
                                    id="o-0" data-palette-color="#0369a1"></rect>
                            </g>
                            <g transform="matrix(1,0,0,1,144.9024280150107,0.2875712862151616)">
                                <svg viewBox="0 0 395.52 115.02851448606754"
                                    height="115.02851448606754" width="395.52">
                                    <g id="textblocktransform">
                                        <svg viewBox="0 0 395.52 115.02851448606754"
                                            height="115.02851448606754" width="395.52"
                                            id="textblock">
                                            <g>
                                                <svg viewBox="0 0 395.52 115.02851448606754"
                                                    height="115.02851448606754" width="395.52">
                                                    <g transform="matrix(1,0,0,1,0,0)">
                                                        <svg width="395.52"
                                                            viewBox="3.5 -35 270.95001220703125 75.10000610351562"
                                                            height="115.02851448606754"
                                                            data-palette-color="#0369a1">
                                                            <svg></svg>
                                                            <svg></svg>
                                                            <g class="wordmark-text-0"
                                                                data-fill-palette-color="primary"
                                                                id="text-0">
                                                                <path
                                                                    xmlns="http://www.w3.org/2000/svg"
                                                                    d="M19.5-35c3.167 0 5.917 0.523 8.25 1.57 2.333 1.053 4.133 2.553 5.4 4.5 1.267 1.953 1.9 4.247 1.9 6.88v0c0 2.633-0.633 4.917-1.9 6.85-1.267 1.933-3.067 3.423-5.4 4.47-2.333 1.053-5.083 1.58-8.25 1.58v0h-6.1v9.15h-9.9v-35zM18.9-16.95c2.033 0 3.567-0.443 4.6-1.33 1.033-0.88 1.55-2.137 1.55-3.77v0c0-1.633-0.517-2.9-1.55-3.8-1.033-0.9-2.567-1.35-4.6-1.35v0h-5.5v10.25zM49.65-7.65h18.3v7.65h-28.1v-35h27.45v7.65h-17.65v5.9h15.55v7.4h-15.55zM95.1 0l-6.35-9.3h-5.4v9.3h-9.9v-35h16c3.167 0 5.917 0.523 8.25 1.57 2.333 1.053 4.133 2.553 5.4 4.5 1.267 1.953 1.9 4.247 1.9 6.88v0c0 2.533-0.593 4.74-1.78 6.62-1.18 1.887-2.87 3.363-5.07 4.43v0l7.55 11zM95-22.05c0-1.633-0.517-2.9-1.55-3.8-1.033-0.9-2.567-1.35-4.6-1.35v0h-5.5v10.25h5.5c2.033 0 3.567-0.443 4.6-1.33 1.033-0.88 1.55-2.137 1.55-3.77zM133.95 0l-10-12.7-3.7 3.95v8.75h-9.8v-35h9.8v14.55l13.55-14.55h10.9l-14.3 15.5 15.05 19.5zM177.55-35l-13.4 22.45v12.55h-9.9v-12.7l-13.35-22.3h10.45l8.3 13.9 8.3-13.9zM191.25-7.85h18.4v7.85h-31.35v-6.2l17.65-20.95h-17.2v-7.85h30.15v6.2z"
                                                                    fill="#0369a1"
                                                                    fill-rule="nonzero"
                                                                    stroke="none" stroke-width="1"
                                                                    stroke-linecap="butt"
                                                                    stroke-linejoin="miter"
                                                                    stroke-miterlimit="10"
                                                                    stroke-dasharray=""
                                                                    stroke-dashoffset="0"
                                                                    font-family="none"
                                                                    font-weight="none"
                                                                    font-size="none"
                                                                    text-anchor="none"
                                                                    style="mix-blend-mode: normal"
                                                                    data-fill-palette-color="primary"
                                                                    opacity="1"></path>
                                                                <path
                                                                    xmlns="http://www.w3.org/2000/svg"
                                                                    d="M3.5 39.4v-35h9.9v27.15h16.7v7.85zM43.8 31.75h18.3v7.65h-28.1v-35h27.45v7.65h-17.65v5.9h15.55v7.4h-15.55zM93.8 39.4l-2.75-6.8h-14.8l-2.75 6.8h-10.1l15.45-35h9.75l15.5 35zM79.15 25.3h9l-4.5-11.2zM128.55 39.4l-6.35-9.3h-5.4v9.3h-9.9v-35h16c3.167 0 5.917 0.523 8.25 1.57 2.333 1.053 4.133 2.553 5.4 4.5 1.267 1.953 1.9 4.247 1.9 6.88v0c0 2.533-0.59 4.74-1.77 6.62-1.187 1.887-2.88 3.363-5.08 4.43v0l7.55 11zM128.45 17.35c0-1.633-0.517-2.9-1.55-3.8-1.033-0.9-2.567-1.35-4.6-1.35v0h-5.5v10.25h5.5c2.033 0 3.567-0.443 4.6-1.33 1.033-0.88 1.55-2.137 1.55-3.77zM167.5 4.4h9.7v35h-8.15l-15.45-18.65v18.65h-9.7v-35h8.15l15.45 18.65zM184.2 39.4v-35h9.9v35zM224.75 4.4h9.7v35h-8.15l-15.45-18.65v18.65h-9.7v-35h8.15l15.45 18.65zM264.9 30.75v-9.6h8.75v14.5c-2 1.433-4.3 2.533-6.9 3.3-2.6 0.767-5.2 1.15-7.8 1.15v0c-3.667 0-6.967-0.777-9.9-2.33-2.933-1.547-5.233-3.703-6.9-6.47-1.667-2.767-2.5-5.9-2.5-9.4v0c0-3.5 0.833-6.633 2.5-9.4 1.667-2.767 3.983-4.927 6.95-6.48 2.967-1.547 6.317-2.32 10.05-2.32v0c3.267 0 6.2 0.55 8.8 1.65 2.6 1.1 4.767 2.683 6.5 4.75v0l-6.3 5.7c-2.367-2.6-5.2-3.9-8.5-3.9v0c-3 0-5.417 0.907-7.25 2.72-1.833 1.82-2.75 4.247-2.75 7.28v0c0 1.933 0.417 3.657 1.25 5.17 0.833 1.52 2 2.703 3.5 3.55 1.5 0.853 3.217 1.28 5.15 1.28v0c1.9 0 3.683-0.383 5.35-1.15z"
                                                                    fill="#0369a1"
                                                                    fill-rule="nonzero"
                                                                    stroke="none" stroke-width="1"
                                                                    stroke-linecap="butt"
                                                                    stroke-linejoin="miter"
                                                                    stroke-miterlimit="10"
                                                                    stroke-dasharray=""
                                                                    stroke-dashoffset="0"
                                                                    font-family="none"
                                                                    font-weight="none"
                                                                    font-size="none"
                                                                    text-anchor="none"
                                                                    style="mix-blend-mode: normal"
                                                                    data-fill-palette-color="primary"
                                                                    opacity="1"></path>
                                                            </g>
                                                        </svg>
                                                    </g>
                                                </svg>
                                            </g>
                                        </svg>
                                    </g>
                                </svg>
                            </g>
                            <g transform="matrix(1,0,0,1,0,0.2875712862151616)">
                                <svg viewBox="0 0 115.02286287854386 115.02851448606754"
                                    height="115.02851448606754" width="115.02286287854386">
                                    <g>
                                        <svg xmlns="http://www.w3.org/2000/svg"
                                            xmlns:xlink="http://www.w3.org/1999/xlink" version="1.1"
                                            x="0" y="0"
                                            viewBox="0.3583327531814575 0.3587183356285095 89.28327178955078 89.28765869140625"
                                            enable-background="new 0 0 90 90" xml:space="preserve"
                                            height="115.02851448606754" width="115.02286287854386"
                                            class="icon-icon-0" data-fill-palette-color="accent"
                                            id="icon-0"><polygon points="57.928,58.169 57.875,76.027 45.397,63.548 45.397,45.639 " fill="#0369a1" data-fill-palette-color="accent"></polygon><polygon points="76.027,57.875 58.475,57.927 45.826,45.279 63.432,45.279 " fill="#0369a1" data-fill-palette-color="accent"></polygon><polygon points="76.027,32.125 63.432,44.721 45.707,44.721 58.355,32.073 " fill="#0369a1" data-fill-palette-color="accent"></polygon><polygon points="44.838,45.59 44.838,63.314 32.125,76.027 32.074,58.355 " fill="#0369a1" data-fill-palette-color="accent"></polygon><polygon points="57.928,31.712 45.397,44.243 45.397,26.452 57.875,13.974 " fill="#0369a1" data-fill-palette-color="accent"></polygon><polygon points="44.838,26.687 44.838,44.291 32.074,31.526 32.125,13.974 " fill="#0369a1" data-fill-palette-color="accent"></polygon><polygon points="44.479,44.721 26.569,44.721 13.974,32.125 31.832,32.073 " fill="#0369a1" data-fill-palette-color="accent"></polygon><polygon points="44.36,45.279 31.712,57.927 13.974,57.875 26.569,45.279 " fill="#0369a1" data-fill-palette-color="accent"></polygon><rect x="58.48" y="58.48" width="18.049" height="18.049" fill="#0369a1" data-fill-palette-color="accent"></rect><polygon points="76.527,13.474 76.527,31.516 58.914,31.516 58.912,31.518 58.484,31.516 58.484,13.474 " fill="#0369a1" data-fill-palette-color="accent"></polygon><polygon points="31.518,30.971 31.516,31.516 13.474,31.516 13.474,13.474 31.516,13.474 31.516,30.968 " fill="#0369a1" data-fill-palette-color="accent"></polygon><rect x="13.471" y="58.48" width="18.05" height="18.049" fill="#0369a1" data-fill-palette-color="accent"></rect><rect x="67.864" y="35.981" transform="matrix(0.7071 -0.7071 0.7071 0.7071 -9.3022 67.5465)" width="18.042" height="18.042" fill="#0369a1" data-fill-palette-color="accent"></rect><rect x="35.979" y="4.094" transform="matrix(0.7071 -0.7071 0.7071 0.7071 3.9068 35.6621)" width="18.042" height="18.042" fill="#0369a1" data-fill-palette-color="accent"></rect><rect x="4.095" y="35.98" transform="matrix(0.7071 -0.7071 0.7071 0.7071 -27.9787 22.4536)" width="18.041" height="18.041" fill="#0369a1" data-fill-palette-color="accent"></rect><rect x="35.98" y="67.865" transform="matrix(0.7071 -0.7071 0.7071 0.7071 -41.1877 54.3437)" width="18.04" height="18.041" fill="#0369a1" data-fill-palette-color="accent"></rect></svg>
                                    </g>
                                </svg>
                            </g>
                        </svg>
                    </g>
                    <defs></defs>
                </svg>
                <rect width="395.52" height="84.60707044990934" fill="none" stroke="none"
                    visibility="hidden"></rect>
            </g>
        </svg>
    </g>
</svg>